<svg width="12" height="12" viewBox="0 0 12 12" fill="none" xmlns="http://www.w3.org/2000/svg">
<path fill-rule="evenodd" clip-rule="evenodd" d="M5.81493 10.5999C4.34061 10.5999 3.29926 12.6523 2.10291 11.7872C0.90656 10.9221 2.53795 8.65117 2.10291 7.56977C1.66787 6.48838 -0.289791 6 0.0364866 4.65C0.362764 3.30001 2.75547 3.67675 3.51678 2.85305C4.2781 2.02935 4.4246 0 6.01824 0C7.61189 0 7.85485 2.28427 8.48644 2.85305C9.28102 3.56861 12 3.15728 12 4.65C12 6.14273 10.0646 6.37009 9.82482 7.56977C9.58504 8.76946 10.9124 10.7058 9.82482 11.5709C8.73722 12.4361 7.28926 10.5999 5.81493 10.5999Z" fill="#F2F2F2"/>
<path d="M4.07865 11.3627C4.60733 10.9931 5.16966 10.5999 5.81493 10.5999C5.87668 10.5999 5.93837 10.6032 6 10.6093V9.15527e-05C4.94464 0.0104237 4.52931 0.917681 4.14254 1.76255C3.95154 2.17978 3.7675 2.58179 3.51678 2.85305C3.19934 3.1965 2.59828 3.33125 1.98165 3.46948C1.1194 3.66278 0.22672 3.8629 0.0364866 4.65001C-0.158473 5.45667 0.462025 5.9557 1.08588 6.45743C1.50609 6.79537 1.92782 7.13454 2.10291 7.56978C2.28397 8.01985 2.10709 8.67598 1.92509 9.35105C1.66981 10.298 1.40448 11.2822 2.10291 11.7872C2.77565 12.2737 3.39938 11.8376 4.07865 11.3627Z" fill="#FABC22"/>
</svg>
