<svg width="20" height="20" viewBox="0 0 20 20" fill="none" xmlns="http://www.w3.org/2000/svg">
<path d="M10.8104 3.39743C10.3983 3.24236 9.60122 3.24236 9.1892 3.39743C8.56371 3.63285 8.54145 4.22259 8.54145 4.79167V8.54167L4.16645 8.54167C2.90396 8.54167 2.97782 11.4583 4.16645 11.4583L8.54145 11.4583V15.2083C8.54145 15.7774 8.56371 16.3672 9.1892 16.6026C9.60122 16.7577 10.3983 16.7577 10.8104 16.6026C11.4359 16.3672 11.4581 15.7774 11.4581 15.2083V11.4583L15.8331 11.4583C17.0956 11.4583 17.0217 8.54168 15.8331 8.54167L11.4581 8.54167V4.79167C11.4581 4.22259 11.4359 3.63285 10.8104 3.39743Z" fill="#0073E6"/>
</svg>
