<svg width="20" height="20" viewBox="0 0 20 20" fill="none" xmlns="http://www.w3.org/2000/svg">
<path fill-rule="evenodd" clip-rule="evenodd" d="M13.3335 2.91669C13.3335 2.07965 12.8628 1.66669 12.0835 1.66669H7.91687C7.13756 1.66669 6.66687 2.07965 6.66687 2.91669C6.66687 3.75372 7.13756 4.16669 7.91687 4.16669L12.0835 4.16669C12.8628 4.16669 13.3335 3.75372 13.3335 2.91669ZM1.66748 6.45835C1.66748 5.3779 2.12306 5.00002 3.12581 5.00002H16.8758C17.8786 5.00002 18.3341 5.3779 18.3341 6.45835C18.3341 7.83353 17.3462 7.91669 16.2502 7.91669V14.3334C16.2502 16.5425 14.4593 18.3334 12.2502 18.3334H7.7502C5.54106 18.3334 3.7502 16.5425 3.7502 14.3334V7.91669C2.65451 7.91669 1.66748 7.83286 1.66748 6.45835ZM10.7502 8.6667C10.7502 8.25248 10.4144 7.9167 10.0002 7.9167C9.58599 7.9167 9.2502 8.25248 9.2502 8.6667L9.2502 14.6667C9.2502 15.0809 9.58599 15.4167 10.0002 15.4167C10.4144 15.4167 10.7502 15.0809 10.7502 14.6667V8.6667ZM6.30404 7.92185C6.71769 7.90017 7.07059 8.21792 7.09227 8.63157L7.40628 14.6233C7.42796 15.037 7.11021 15.3899 6.69656 15.4116C6.28292 15.4332 5.93002 15.1155 5.90834 14.7018L5.59432 8.71007C5.57264 8.29643 5.8904 7.94353 6.30404 7.92185ZM14.4062 8.71006C14.4279 8.29641 14.1101 7.94351 13.6965 7.92184C13.2828 7.90016 12.9299 8.21791 12.9082 8.63156L12.5942 14.6233C12.5725 15.037 12.8903 15.3899 13.3039 15.4116C13.7176 15.4332 14.0705 15.1155 14.0922 14.7018L14.4062 8.71006Z" fill="#ED2C19"/>
</svg>
