<svg width="20" height="20" viewBox="0 0 20 20" fill="none" xmlns="http://www.w3.org/2000/svg">
<path fill-rule="evenodd" clip-rule="evenodd" d="M17.8584 8.78566C17.3154 7.56234 16.2479 6.70871 14.9864 6.30913C13.8812 5.96517 12.8218 5.96195 11.9551 5.94905C10.6634 5.92433 6.7268 5.88671 6.7268 5.88671L8.5529 4.16475C9.66789 3.03663 7.80932 1.05242 6.57263 1.87525C6.09554 2.19342 5.26322 2.84157 3.96423 4.13788C3.04337 5.05582 2.41731 5.82006 2.00792 6.37793C1.5527 6.99921 1.5527 7.83869 2.00792 8.45997C2.41731 9.01891 3.04337 9.781 3.96423 10.6989C5.26322 11.9963 6.09554 12.6445 6.57263 12.9626C7.80161 13.7838 9.66687 11.8002 8.5529 10.6731L6.71951 9.14252C6.79764 9.14144 10.5123 9.11027 11.9551 9.08233C12.6854 9.07025 13.4361 9.04178 14.1478 9.23603C14.7333 9.41124 15.0312 9.63481 15.2437 10.0529C15.7024 11.0234 15.7083 12.5589 14.8645 13.341C14.4937 13.6774 13.853 13.915 13.1072 14.0257C12.8145 14.0719 11.8488 14.1418 11.9655 15.4252C12.0832 16.7151 13.0239 16.6968 13.4291 16.6527C14.4124 16.5388 15.5364 16.2905 16.5531 15.4929C17.5531 14.6865 18.0967 13.4976 18.2667 12.2435C18.4201 11.0856 18.3305 9.86394 17.8584 8.78566Z" fill="#0073E6"/>
</svg>
